<svg id="line_icons" height="512" viewBox="0 0 74 74" width="512" xmlns="http://www.w3.org/2000/svg" data-name="line icons"><path d="m59.671 43.83c-3.236 0-4.895-1.6-6.359-3.011-1.364-1.315-2.541-2.45-4.971-2.45s-3.608 1.135-4.972 2.45c-1.464 1.411-3.123 3.011-6.36 3.011s-4.9-1.6-6.362-3.01c-1.364-1.315-2.543-2.451-4.974-2.451s-3.608 1.131-4.973 2.45c-1.464 1.411-3.124 3.011-6.361 3.011s-4.9-1.6-6.363-3.01c-1.365-1.315-2.544-2.451-4.976-2.451a1 1 0 0 1 0-2c3.238 0 4.9 1.6 6.364 3.01 1.365 1.315 2.545 2.451 4.976 2.451s3.609-1.136 4.973-2.451c1.464-1.411 3.124-3.01 6.36-3.01s4.9 1.6 6.362 3.01c1.365 1.315 2.544 2.451 4.974 2.451s3.608-1.136 4.972-2.451c1.464-1.411 3.124-3.01 6.36-3.01s4.895 1.6 6.359 3.01c1.364 1.315 2.542 2.451 4.971 2.451s3.606-1.136 4.971-2.451c1.463-1.411 3.122-3.01 6.358-3.01a1 1 0 0 1 0 2c-2.429 0-3.606 1.135-4.971 2.45-1.463 1.411-3.122 3.011-6.358 3.011z"/><path d="m59.671 52.719c-3.236 0-4.895-1.6-6.359-3.01-1.364-1.315-2.541-2.451-4.971-2.451s-3.608 1.136-4.972 2.451c-1.464 1.411-3.123 3.01-6.36 3.01s-4.9-1.6-6.362-3.01c-1.364-1.315-2.543-2.451-4.974-2.451s-3.608 1.136-4.972 2.45c-1.464 1.412-3.124 3.011-6.361 3.011s-4.9-1.6-6.363-3.01c-1.366-1.315-2.545-2.451-4.977-2.451a1 1 0 0 1 0-2c3.238 0 4.9 1.6 6.364 3.011 1.365 1.314 2.545 2.45 4.976 2.45s3.609-1.136 4.973-2.45c1.464-1.412 3.124-3.011 6.36-3.011s4.9 1.6 6.362 3.011c1.365 1.314 2.544 2.45 4.974 2.45s3.608-1.136 4.972-2.45c1.464-1.412 3.124-3.011 6.36-3.011s4.895 1.6 6.359 3.011c1.364 1.314 2.542 2.45 4.971 2.45s3.606-1.136 4.971-2.45c1.463-1.411 3.122-3.011 6.358-3.011a1 1 0 0 1 0 2c-2.429 0-3.606 1.136-4.971 2.45-1.463 1.412-3.122 3.011-6.358 3.011z"/><path d="m59.671 61.608c-3.236 0-4.895-1.6-6.359-3.01-1.364-1.315-2.541-2.45-4.971-2.45s-3.608 1.135-4.972 2.45c-1.464 1.411-3.123 3.01-6.36 3.01s-4.9-1.6-6.362-3.009c-1.364-1.315-2.543-2.451-4.974-2.451s-3.608 1.135-4.973 2.452c-1.464 1.411-3.124 3.01-6.361 3.01s-4.9-1.6-6.363-3.009c-1.365-1.317-2.544-2.453-4.976-2.453a1 1 0 0 1 0-2c3.238 0 4.9 1.6 6.364 3.01 1.365 1.315 2.545 2.45 4.976 2.45s3.609-1.135 4.973-2.45c1.464-1.411 3.124-3.01 6.36-3.01s4.9 1.6 6.362 3.01c1.365 1.315 2.544 2.45 4.974 2.45s3.608-1.135 4.972-2.45c1.464-1.411 3.124-3.01 6.36-3.01s4.895 1.6 6.359 3.01c1.364 1.315 2.542 2.45 4.971 2.45s3.606-1.135 4.971-2.45c1.463-1.411 3.122-3.01 6.358-3.01a1 1 0 0 1 0 2c-2.429 0-3.606 1.135-4.971 2.45-1.463 1.411-3.122 3.01-6.358 3.01z"/><path d="m48.763 38.386a1 1 0 0 1 -.895-.553l-4.555-9.1a10.22 10.22 0 0 0 -5.218-4.85 12.934 12.934 0 0 1 -6.572-6.108l-.94-1.893-6.583 3.318.94 1.885a12.823 12.823 0 0 1 1.375 5.772 13.172 13.172 0 0 1 -.4 3.146 10.143 10.143 0 0 0 .7 6.939 1 1 0 0 1 -1.8.873 12.148 12.148 0 0 1 -.84-8.3 11.111 11.111 0 0 0 .337-2.658 10.833 10.833 0 0 0 -1.161-4.874l-1.39-2.783a1 1 0 0 1 .446-1.34l8.375-4.21a1 1 0 0 1 1.344.448l1.386 2.788a10.921 10.921 0 0 0 5.55 5.156 12.22 12.22 0 0 1 6.239 5.8l4.555 9.1a1 1 0 0 1 -.893 1.448z"/><path d="m26.949 38.48a1 1 0 0 1 -.449-1.894l17.473-8.766a1.011 1.011 0 0 1 .763-.055 1 1 0 0 1 .579.5l4.341 8.671a1 1 0 1 1 -1.788.895l-3.893-7.776-16.575 8.32a1.01 1.01 0 0 1 -.451.105z"/><path d="m21.574 20.144a2.251 2.251 0 0 1 -2.005-1.238l-1.225-2.551a2.24 2.24 0 0 1 1.006-2.993l9.432-4.732a2.24 2.24 0 0 1 3.009 1l1.225 2.55a2.24 2.24 0 0 1 -1.006 2.993l-9.433 4.727a2.246 2.246 0 0 1 -1.003.244zm8.212-9.753a.239.239 0 0 0 -.107.026l-9.433 4.733a.24.24 0 0 0 -.107.324l1.225 2.551a.227.227 0 0 0 .132.105.242.242 0 0 0 .184-.013l9.433-4.734a.233.233 0 0 0 .121-.139.239.239 0 0 0 -.014-.184l-1.22-2.551a.227.227 0 0 0 -.132-.105.242.242 0 0 0 -.082-.013z"/></svg>