<?xml version="1.0" encoding="iso-8859-1"?>
<!-- Generator: Adobe Illustrator 19.0.0, SVG Export Plug-In . SVG Version: 6.00 Build 0)  -->
<svg version="1.1" id="Capa_1" xmlns="http://www.w3.org/2000/svg" xmlns:xlink="http://www.w3.org/1999/xlink" x="0px" y="0px"
	 viewBox="0 0 512 512" style="enable-background:new 0 0 512 512;" xml:space="preserve">
<g>
	<path style="fill:#88C9DB;" d="M437.013,202.211c-4.328,0-7.837-3.509-7.837-7.837v-59.502c0-26.668,10.385-51.74,29.243-70.597
		c3.06-3.061,8.023-3.061,11.082,0c3.06,3.061,3.06,8.023,0,11.082c-15.897,15.897-24.652,37.033-24.652,59.515v59.502
		C444.85,198.702,441.341,202.211,437.013,202.211z"/>
	<path style="fill:#88C9DB;" d="M474.505,202.211c-4.328,0-7.837-3.509-7.837-7.837v-59.502c0-26.668,10.385-51.74,29.242-70.597
		c3.061-3.061,8.023-3.062,11.082,0c3.06,3.061,3.06,8.022,0,11.082c-15.897,15.897-24.651,37.033-24.651,59.515v59.502
		C482.342,198.702,478.833,202.211,474.505,202.211z"/>
</g>
<path style="fill:#B0EBE1;" d="M512,232.651v41.253c0,97.27-78.848,176.118-176.118,176.118H0l118.376-93.038l48.473-15.005
	l98.68-30.542l134.165-41.535v-37.251c0-30.835,24.858-55.881,55.63-56.153c0.167-0.01,0.345-0.01,0.522-0.01
	c15.506,0,29.55,6.29,39.706,16.447C505.71,203.101,512,217.144,512,232.651z"/>
<g>
	<path style="fill:#80CDD6;" d="M512,259.273v14.629c0,97.27-78.848,176.118-176.118,176.118H0l18.61-14.629h317.273
		C433.152,435.39,512,356.542,512,259.273z"/>
	<polygon style="fill:#80CDD6;" points="265.529,311.436 219.572,450.021 0,450.021 118.376,356.983 166.849,341.978 	"/>
	<path style="fill:#80CDD6;" d="M455.325,176.498c-22.152,1.149-25.234,74.449-25.234,122.661
		c0,48.588-51.722,153.59-216.283,108.147c-36.697-10.135-49.382-34.137-46.958-65.327l232.845-72.077v-37.251
		C399.694,201.816,424.552,176.77,455.325,176.498z"/>
</g>
<circle style="fill:#F48976;" cx="219.575" cy="269.908" r="180.109"/>
<g>
	<path style="fill:#F26876;" d="M241.379,448.715c-7.147,0.857-14.42,1.306-21.807,1.306c-99.474,0-180.109-80.645-180.109-180.12
		c0-99.464,80.635-180.109,180.109-180.109c7.387,0,14.66,0.449,21.807,1.306c-89.192,10.762-158.312,86.716-158.312,178.803
		C83.066,361.999,152.186,437.952,241.379,448.715z"/>
	<path style="fill:#F26876;" d="M203.241,442.942c-5.606,0-11.239-0.385-16.895-1.157c-35.292-4.825-68.13-24.248-94.962-56.166
		c-32.849-39.076-48.807-76.93-48.785-115.721c0.002-4.327,3.511-7.833,7.837-7.833c0.001,0,0.002,0,0.004,0
		c4.329,0.002,7.836,3.513,7.833,7.841c-0.02,35.431,14.314,68.995,45.109,105.628c24.289,28.894,53.712,46.433,85.088,50.722
		c31.992,4.375,63.526-5.612,91.202-28.878c45.344-38.118,51.223-106.02,13.105-151.363c-14.502-17.252-34.856-27.824-57.309-29.768
		c-22.458-1.944-44.321,4.973-61.573,19.475c-27.83,23.395-31.438,65.069-8.043,92.898c8.796,10.465,21.141,16.877,34.762,18.056
		c13.622,1.182,26.884-3.016,37.348-11.813c8.051-6.768,12.985-16.266,13.892-26.745c0.907-10.479-2.321-20.684-9.089-28.735
		c-5.145-6.12-12.365-9.871-20.332-10.561c-7.965-0.689-15.723,1.765-21.844,6.909c-3.312,2.786-8.257,2.357-11.041-0.956
		c-2.786-3.313-2.357-8.257,0.956-11.041c9.326-7.839,21.146-11.576,33.282-10.527c12.136,1.05,23.138,6.765,30.977,16.089
		c9.462,11.256,13.974,25.523,12.706,40.172c-1.268,14.649-8.166,27.929-19.422,37.391c-13.669,11.492-30.991,16.973-48.785,15.43
		c-17.79-1.54-33.916-9.917-45.408-23.585c-28.955-34.445-24.49-86.025,9.955-114.981c20.457-17.197,46.382-25.398,73.011-23.093
		c26.625,2.305,50.759,14.841,67.956,35.298c43.679,51.96,36.942,129.767-15.017,173.447
		C263.428,431.508,233.809,442.941,203.241,442.942z"/>
</g>
<g>
</g>
<g>
</g>
<g>
</g>
<g>
</g>
<g>
</g>
<g>
</g>
<g>
</g>
<g>
</g>
<g>
</g>
<g>
</g>
<g>
</g>
<g>
</g>
<g>
</g>
<g>
</g>
<g>
</g>
</svg>
